# xmcd
#
# Track frame offsets:
#	150
#	42077
#	60087
#	82397
#	102957
#	130135
#	140525
#	166582
#
# Disc length: 2449 seconds
#
# Revision: 3
# Processed by: cddbd v1.5.2PL0 Copyright (c) Steve Scherf et al.
# Submitted via: audiograbber 1.81.01
#
DISCID=60098f08
DTITLE=Festival / Disco Evita
DYEAR=1979
DGENRE=Disco
TTITLE0=Buenos Aires
TTITLE1=I'd Be Surprisingly Good For You
TTITLE2=Don't Cry For Me Argentina
TTITLE3=High Flying, Adored
TTITLE4=Rainbow High
TTITLE5=She Is A Diamond
TTITLE6=Eva's Theme: Lady Woman
TTITLE7=Don't Cry For Me Argentina (Single Version)
EXTD=Vocals by FESTIVAL with Kevin Owens,\nLucia Suarez, Catalina Sevilla and S
EXTD=ilvia Suarez\n\nProduced and arranged by\nBORIS MIDNEY\nM Sound Production
EXTD=s, Inc.\n\nMusic and lyrics by Andrew Lloyd Webber and Tim Rice except\n"E
EXTD=va's Theme: Lady Woman" by Boris Midney\n\nPublished by MCA Music Publishi
EXTD=ng, A division of MCA, Inc. (ASCAP),\nexcept "Eva's Theme: Lady Woman" pub
EXTD=lished by Eugenia Publishing Co. (BMI)\n\nKeyboards and Sax: Boris Midney
EXTD=\nViolins: Bob DePasquale, Luic Biva, Arnold Grossi, Joseph Lanza, Louis L
EXTD=anza\nTrumpets: Jim Bossy, Earl Gardner, Lou Opalesky\nTrombones: Ed Casca
EXTD=rella, Bob Hall, Fred Linge\nBass: Francisco Centeno\nGuitars: Bob Feldman
EXTD=, Ray Volpe\nPercussion: Johnny Santana\nHarp: Reinhardt Elster\n\nEnginee
EXTD=red by Boris Midney\nCheif Engineer: Dmitri Zbrizer\nSecond Engineers: \nB
EXTD=rad Johnson and Ray Volpe\nEditor: Kathrine Meyer\n\nThanks to Al Coury fo
EXTD=r the "LONDON TRIP"\nSpecial thanks to Howard Smiley of Palm Music\n48 Tra
EXTD=ck Recording done at Eras Recording Studio, New York, NY. \nTelefunken equ
EXTD=ipment exclusively used. \nCover photography by Boris Midney\nDigitally re
EXTD=mastered by Steve Fallone at PolyGram Studios\n
EXTT0=
EXTT1=
EXTT2=
EXTT3=
EXTT4=
EXTT5=
EXTT6=
EXTT7=
PLAYORDER=
.
